<svg width="43" height="30" viewBox="0 0 43 30" fill="none" xmlns="http://www.w3.org/2000/svg">
<path d="M12.7086 0.0520261L10.2586 0.902026C9.55864 1.15203 9.35864 1.90203 9.80864 2.40203L19.1086 11.952L28.0086 9.00203L13.5586 0.152026C13.3086 0.0020255 13.0086 -0.0479739 12.7086 0.0520261Z" fill="#EBEBEB"/>
<path d="M40.0594 5.40186C38.8594 5.40186 37.6094 5.70186 36.4594 5.25186C33.7094 4.15186 30.5594 4.05186 27.6594 5.05186L7.45938 14.0519L4.95938 11.1019C4.10938 10.1019 1.90938 9.80186 0.759375 10.5519C0.159375 10.9519 -0.190625 11.8519 0.109375 12.5519L2.80938 19.1019C3.10938 20.0519 4.10938 20.6519 5.10938 20.4519L7.20938 20.0519C8.40938 19.8519 9.50938 19.5519 10.6594 19.2519C12.7594 18.6519 14.8094 17.9519 16.9094 17.2519C19.6094 16.3519 22.2594 15.4519 24.9594 14.5519C27.6594 13.6519 30.3094 12.7519 33.0094 11.8519L38.4094 10.0519L39.3094 9.75186C40.6094 9.30187 41.8094 8.70186 42.4094 7.40186C42.5594 7.05186 42.6594 6.70187 42.5594 6.35187C42.4094 5.80187 41.7094 5.55186 41.1594 5.45186C40.7094 5.40186 40.4094 5.40186 40.0594 5.40186Z" fill="#EBEBEB"/>
<path d="M21.3601 28.1021L18.9101 28.9521C18.2101 29.2021 17.5601 28.6521 17.6101 27.9021L18.9101 14.2021C18.9601 13.9021 19.1601 13.6521 19.4601 13.5521L26.3601 11.2521C26.9601 11.0521 27.5601 11.6521 27.3601 12.2521L22.0101 27.5021C21.9101 27.8021 21.6601 28.0021 21.3601 28.1021Z" fill="#EBEBEB"/>
</svg>
