<svg width="45" height="42" viewBox="0 0 45 42" fill="none" xmlns="http://www.w3.org/2000/svg">
<path d="M22.4999 42C21.8729 42 21.2458 41.8411 20.7508 41.5005L0.717824 27.7201C-0.239275 27.0617 -0.239275 25.972 0.717824 25.3136C1.67492 24.6552 3.25909 24.6552 4.21618 25.3136L22.4999 37.8908L40.7838 25.3136C41.7409 24.6552 43.3251 24.6552 44.2822 25.3136C45.2393 25.972 45.2393 27.0617 44.2822 27.7201L24.2491 41.5005C23.7541 41.8411 23.127 42 22.4999 42Z" fill="#EBEBEB"/>
<path d="M22.5026 41.6138C21.1495 41.6138 20.0273 40.8419 20.0273 39.9111V1.70269C20.0273 0.771888 21.1495 0 22.5026 0C23.8557 0 24.9779 0.771888 24.9779 1.70269V39.9111C24.9779 40.8419 23.8557 41.6138 22.5026 41.6138Z" fill="#EBEBEB"/>
</svg>
