<svg width="28" height="25" viewBox="0 0 28 25" fill="none" xmlns="http://www.w3.org/2000/svg">
<path d="M27.2998 12.2111C27.2998 12.5514 27.1965 12.8917 26.9752 13.1603L18.018 24.0323C17.59 24.5517 16.8817 24.5517 16.4538 24.0323C16.0258 23.5129 16.0258 22.6532 16.4538 22.1337L24.6289 12.2111L16.4538 2.28831C16.0258 1.76889 16.0258 0.909155 16.4538 0.389733C16.8817 -0.129688 17.59 -0.129688 18.018 0.389733L26.9752 11.2618C27.1965 11.5304 27.2998 11.8707 27.2998 12.2111Z" fill="#020203"/>
<path d="M27.0488 12.2094C27.0488 12.9438 26.547 13.5527 25.942 13.5527L1.10674 13.5527C0.501723 13.5527 0 12.9438 0 12.2094C0 11.475 0.501723 10.8661 1.10674 10.8661L25.942 10.8661C26.547 10.8661 27.0488 11.475 27.0488 12.2094Z" fill="#020203"/>
</svg>
