<?xml version="1.0" encoding="utf-8"?><svg xml:space="preserve" viewBox="0 0 100 100" y="0" x="0" xmlns="http://www.w3.org/2000/svg" id="圖層_1" version="1.1" width="50px" height="50px" xmlns:xlink="http://www.w3.org/1999/xlink" style="width:100%;height:100%;background-size:initial;background-repeat-y:initial;background-repeat-x:initial;background-position-y:initial;background-position-x:initial;background-origin:initial;background-color:initial;background-clip:initial;background-attachment:initial;animation-play-state:paused" ><g class="ldl-scale" style="transform-origin:50% 50%;transform:rotate(0deg) scale(0.8, 0.8);animation-play-state:paused" ><path fill="#333" d="M32.9 21.1L28 22.8c-1.4.5-1.8 2-.9 3l18.6 19.1L63.5 39 34.6 21.3c-.5-.3-1.1-.4-1.7-.2z" style="fill:rgb(2, 2, 3);animation-play-state:paused" ></path>
<path fill="#333" d="M87.6 31.8c-2.4 0-4.9.6-7.2-.3-5.5-2.2-11.8-2.4-17.6-.4l-40.4 18-5-5.9c-1.7-2-6.1-2.6-8.4-1.1-1.2.8-1.9 2.6-1.3 4l5.4 13.1c.6 1.9 2.6 3.1 4.6 2.7l4.2-.8c2.4-.4 4.6-1 6.9-1.6 4.2-1.2 8.3-2.6 12.5-4 5.4-1.8 10.7-3.6 16.1-5.4 5.4-1.8 10.7-3.6 16.1-5.4l10.8-3.6 1.8-.6c2.6-.9 5-2.1 6.2-4.7.3-.7.5-1.4.3-2.1-.3-1.1-1.7-1.6-2.8-1.8-.9-.1-1.5-.1-2.2-.1z" style="fill:rgb(2, 2, 3);animation-play-state:paused" ></path>
<path fill="#333" d="M50.2 77.2l-4.9 1.7c-1.4.5-2.7-.6-2.6-2.1l2.6-27.4c.1-.6.5-1.1 1.1-1.3l13.8-4.6c1.2-.4 2.4.8 2 2L51.5 76c-.2.6-.7 1-1.3 1.2z" style="fill:rgb(2, 2, 3);animation-play-state:paused" ></path>
<metadata xmlns:d="https://loading.io/stock/" style="animation-play-state:paused" ><d:name style="animation-play-state:paused" >airplane</d:name>


<d:tags style="animation-play-state:paused" >take off,launch,fly,start,aircraft,aeronautics,aviation,airplane,transportation</d:tags>


<d:license style="animation-play-state:paused" >by</d:license>


<d:slug style="animation-play-state:paused" >syfiwv</d:slug></metadata></g><!-- generated by https://loading.io/ --></svg>