<svg width="27" height="25" viewBox="0 0 27 25" fill="none" xmlns="http://www.w3.org/2000/svg">
<path d="M27.0004 12.2111C27.0004 12.5514 26.8982 12.8917 26.6793 13.1603L17.8205 24.0323C17.3973 24.5517 16.6967 24.5517 16.2735 24.0323C15.8502 23.5129 15.8502 22.6532 16.2735 22.1337L24.3588 12.2111L16.2735 2.28831C15.8502 1.76889 15.8502 0.909155 16.2735 0.389733C16.6967 -0.129688 17.3973 -0.129688 17.8205 0.389733L26.6793 11.2618C26.8982 11.5304 27.0004 11.8707 27.0004 12.2111Z" fill="#EBEBEB"/>
<path d="M26.7515 12.2094C26.7515 12.9438 26.2553 13.5527 25.6569 13.5527L1.09458 13.5527C0.496209 13.5527 0 12.9438 0 12.2094C0 11.475 0.496209 10.8661 1.09458 10.8661L25.6569 10.8661C26.2553 10.8661 26.7515 11.475 26.7515 12.2094Z" fill="#EBEBEB"/>
</svg>
